<?xml version="1.0" standalone="no"?><!DOCTYPE svg PUBLIC "-//W3C//DTD SVG 1.1//EN" "http://www.w3.org/Graphics/SVG/1.1/DTD/svg11.dtd"><svg t="1567927796332" class="icon" viewBox="0 0 1024 1024" version="1.1" xmlns="http://www.w3.org/2000/svg" p-id="2220" xmlns:xlink="http://www.w3.org/1999/xlink" width="200" height="200"><defs><style type="text/css"></style></defs><path d="M759.042503 276.751855l7.798381-4.624621 64.835379 108.923436-7.798381 4.624622zM722.498926 124.42952l7.798381-4.642757 64.853515 108.923437-7.798381 4.642757zM607.173563 163.27634l7.798381-4.624621 64.835379 108.923436-7.798382 4.642758zM460.001786 65.597081l7.798382-4.642757 64.853514 108.923437-7.798381 4.642757zM356.700439 124.592742l7.798381-4.642757 64.835379 108.923437-7.798382 4.642757zM191.120855 163.221933l7.798382-4.642757 64.835379 108.923436-7.798382 4.642758zM116.292667 276.769991l7.798381-4.642757 64.835379 108.923436-7.798381 4.642758zM201.059258 4.624621l7.780245-4.642757 64.853515 108.923437-7.798382 4.642757zM913.250958 622.83676c-24.846005-188.612011-192.057808-306.494519-385.203761-312.66068v-47.697076a15.959478 15.959478 0 0 0-31.737598 0v47.697076C303.345002 316.342242 135.951842 434.043391 110.924479 622.83676a59.666684 59.666684 0 0 0-3.264439 18.135771 15.77812 15.77812 0 0 0 15.959478 15.77812h1.088146a16.140836 16.140836 0 0 0 15.959478-14.508616c0-4.171227 0-8.342454 1.088147-12.332324 9.430601-20.856136 42.981776-36.271541 78.890601-36.271541 43.344491 0 81.248251 21.944282 81.248251 47.334361a15.77812 15.77812 0 0 0 15.959477 15.77812h1.813578a15.596762 15.596762 0 0 0 14.1459-15.234047 25.571436 25.571436 0 0 1 0-3.808512c3.445796-23.939217 40.26141-43.888564 81.066894-43.888564s81.248251 21.944282 81.248251 47.33436v161.226999h-1.63222a3.264439 3.264439 0 0 0-1.994934 3.445796v36.271541a3.445796 3.445796 0 0 0 3.627154 3.627154v99.202663a47.515718 47.515718 0 0 1-94.850079 0 15.77812 15.77812 0 0 0-15.596762-15.77812 15.959478 15.959478 0 0 0-15.959478 15.77812 79.071959 79.071959 0 0 0 158.143917 0v-98.65859a2.176292 2.176292 0 0 0 2.176292 0 3.083081 3.083081 0 0 0 1.63222-2.720366v-36.27154a3.808512 3.808512 0 0 0-1.63222-3.083081 2.720366 2.720366 0 0 0-2.176292 0v-162.496503c0-25.390078 37.90376-47.334361 81.248251-47.33436 40.624126 0 77.621097 19.949347 81.066893 43.525849v4.171227a15.596762 15.596762 0 0 0 14.327259 15.234047H706.140461a15.596762 15.596762 0 0 0 15.77812-15.77812c0-25.390078 38.085118-47.334361 81.429609-47.334361 36.271541 0 69.46 15.415405 78.709243 36.271541 0 3.989869 1.088146 8.161097 1.450862 12.332324a15.77812 15.77812 0 0 0 15.596762 14.508616h1.450862a15.596762 15.596762 0 0 0 15.596763-15.77812 59.666684 59.666684 0 0 0-2.901724-18.679844zM305.339937 589.648301A135.474204 135.474204 0 0 0 220.64589 562.263287a146.355667 146.355667 0 0 0-68.009139 15.959478c33.551175-111.897703 128.219896-194.959531 253.900784-224.883552-63.112481 57.490392-92.311071 151.977755-101.197598 236.309088z m190.969662-2.539008A138.738643 138.738643 0 0 0 415.968136 562.263287a145.086163 145.086163 0 0 0-73.812585 18.135771l-3.445797 1.994935c16.684909-134.023343 78.709243-229.78021 158.506633-241.205746z m186.617076-5.259374a145.086163 145.086163 0 0 0-73.631227-18.13577 137.469139 137.469139 0 0 0-81.248251 24.301932V342.639109c79.797389 11.425535 141.821724 107.182403 158.325275 241.205745a21.400209 21.400209 0 0 1-3.445797-1.994935z m120.602873-18.13577a136.199635 136.199635 0 0 0-84.694048 26.84094c-8.70517-84.331332-37.722402-178.637338-100.472167-235.765014 10.881462 2.539008 21.581567 5.622089 31.918956 8.886527 108.814622 36.271541 190.969662 113.892638 221.437755 215.997025a147.806528 147.806528 0 0 0-68.190496-17.41034z" p-id="2221"></path></svg>