<?xml version="1.0" standalone="no"?><!DOCTYPE svg PUBLIC "-//W3C//DTD SVG 1.1//EN" "http://www.w3.org/Graphics/SVG/1.1/DTD/svg11.dtd"><svg t="1567927778486" class="icon" viewBox="0 0 1183 1024" version="1.1" xmlns="http://www.w3.org/2000/svg" p-id="1984" xmlns:xlink="http://www.w3.org/1999/xlink" width="231.0546875" height="200"><defs><style type="text/css"></style></defs><path d="M1105.277567 917.657795a415.391635 415.391635 0 0 1-359.908746-318.78327H1119.391635a24.334601 24.334601 0 0 0 0-48.669202H737.095057a325.110266 325.110266 0 0 1-2.43346-34.555133A415.148289 415.148289 0 0 1 1084.34981 95.634981l77.38403-12.1673L1090.920152 48.912548a500.562738 500.562738 0 0 0-231.422053-48.669202A511.026616 511.026616 0 0 0 389.353612 680.152091H24.334601a24.334601 24.334601 0 0 0 0 48.669202h584.030418a24.334601 24.334601 0 0 0 0-48.669202h-167.665399A462.357414 462.357414 0 0 1 860.714829 48.912548h12.1673a456.273764 456.273764 0 0 1 126.296578 17.764258 464.304183 464.304183 0 0 0-313.186312 450.190114c0 11.193916 0 22.387833 2.190115 33.338403H584.030418a24.334601 24.334601 0 0 0 0 48.669202h111.452472A464.547529 464.547529 0 0 0 1022.053232 950.752852a456.030418 456.030418 0 0 1-137.490494 24.3346h-11.923955a455.787072 455.787072 0 0 1-182.266159-37.718631h83.46768a24.334601 24.334601 0 0 0 0-48.669201H221.931559a24.334601 24.334601 0 1 0 0 48.669201h366.479087a507.863118 507.863118 0 0 0 283.984791 86.387833h13.140685a504.212928 504.212928 0 0 0 228.745247-60.836502L1183.391635 924.958175z" p-id="1985"></path></svg>