<?xml version="1.0" standalone="no"?><!DOCTYPE svg PUBLIC "-//W3C//DTD SVG 1.1//EN" "http://www.w3.org/Graphics/SVG/1.1/DTD/svg11.dtd"><svg t="1567927769700" class="icon" viewBox="0 0 1024 1024" version="1.1" xmlns="http://www.w3.org/2000/svg" p-id="1865" xmlns:xlink="http://www.w3.org/1999/xlink" width="200" height="200"><defs><style type="text/css"></style></defs><path d="M773.12 757.76h-79.872c-15.36 0-29.696-15.36-29.696-29.696s15.36-29.696 29.696-29.696h79.872c100.352 0 180.224-79.872 180.224-180.224S873.472 337.92 773.12 337.92c-25.6 0-50.176 5.12-74.752 15.36-10.24 5.12-20.48 5.12-25.6 0-10.24-5.12-15.36-15.36-15.36-20.48-15.36-100.352-100.352-175.104-200.704-175.104C346.112 155.648 256 245.76 250.88 356.352c0 15.36-10.24 29.696-29.696 29.696-79.872 5.12-145.408 74.752-145.408 160.768 0 90.112 70.656 160.768 160.768 160.768h75.776c15.36 0 29.696 15.36 29.696 29.696s-15.36 30.72-30.72 30.72h-79.872C110.592 757.76 10.24 662.528 10.24 541.696c0-105.472 75.776-195.584 175.104-216.064 15.36-130.048 130.048-235.52 266.24-235.52 120.832 0 225.28 79.872 256 195.584 20.48-5.12 45.056-10.24 65.536-10.24C908.288 276.48 1013.76 387.072 1013.76 517.12S903.168 757.76 773.12 757.76z" fill="" p-id="1866"></path><path d="M437.248 933.888c-10.24 0-15.36-5.12-20.48-10.24-10.24-10.24-10.24-29.696 0-45.056l79.872-79.872h-60.416c-10.24 0-25.6-5.12-29.696-20.48-5.12-10.24 0-24.576 5.12-34.816l130.048-130.048c10.24-10.24 29.696-10.24 45.056 0 10.24 10.24 10.24 29.696 0 45.056L512 742.4h55.296c10.24 0 24.576 5.12 29.696 20.48 5.12 10.24 0 24.576-5.12 34.816L461.824 928.768c-10.24 5.12-20.48 5.12-24.576 5.12z" fill="" p-id="1867"></path></svg>